<?xml version="1.0" encoding="UTF-8"?>

<svg>
	<pattern id="grid_p1" x="0" y="0" width="1" height="1"
		patternUnits="userSpaceOnUse">
		<line x1="0" y1="1" x2="1" y2="1" stroke="silver" stroke-width=".1" />
		<line x1="0" y1="0" x2="0" y2="1" stroke="silver" stroke-width=".1" />
	</pattern>
	<pattern id="grid_p10" x="0" y="0" width="10" height="10"
		patternUnits="userSpaceOnUse">
		<line x1="0" y1="10" x2="10" y2="10" stroke="gray" stroke-width=".2" />
		<line x1="0" y1="0" x2="0" y2="10" stroke="gray" stroke-width=".2" />
	</pattern>
	<symbol id="grid">
		<rect fill="url(#grid_p1)" x="0" y="0" width="100" height="100" />
		<rect fill="url(#grid_p10)" x="0" y="0" width="100" height="100" />
		<g stroke="none" fill="black">
			<text text-anchor="middle" font-size="1.4">
				<tspan x="10" y="1.4">10</tspan>
				<tspan x="20" y="1.4">20</tspan>
				<tspan x="30" y="1.4">30</tspan>
				<tspan x="40" y="1.4">40</tspan>
				<tspan x="50" y="1.4">50</tspan>
				<tspan x="60" y="1.4">60</tspan>
				<tspan x="70" y="1.4">70</tspan>
				<tspan x="80" y="1.4">80</tspan>
				<tspan x="90" y="1.4">90</tspan>
			</text>
			<text text-anchor="middle" font-size="1.4">
				<tspan x="10" y="99.4">10</tspan>
				<tspan x="20" y="99.4">20</tspan>
				<tspan x="30" y="99.4">30</tspan>
				<tspan x="40" y="99.4">40</tspan>
				<tspan x="50" y="99.4">50</tspan>
				<tspan x="60" y="99.4">60</tspan>
				<tspan x="70" y="99.4">70</tspan>
				<tspan x="80" y="99.4">80</tspan>
				<tspan x="90" y="99.4">90</tspan>
			</text>
			<text font-size="1.4">
				<tspan x=".4" y="10.4">10</tspan>
				<tspan x=".4" y="20.4">20</tspan>
				<tspan x=".4" y="30.4">30</tspan>
				<tspan x=".4" y="40.4">40</tspan>
				<tspan x=".4" y="50.4">50</tspan>
				<tspan x=".4" y="60.4">60</tspan>
				<tspan x=".4" y="70.4">70</tspan>
				<tspan x=".4" y="80.4">80</tspan>
				<tspan x=".4" y="90.4">90</tspan>
			</text>
			<text font-size="1.3">
				<tspan x="98.4" y="10.4">10</tspan>
				<tspan x="98.4" y="20.4">20</tspan>
				<tspan x="98.4" y="30.4">30</tspan>
				<tspan x="98.4" y="40.4">40</tspan>
				<tspan x="98.4" y="50.4">50</tspan>
				<tspan x="98.4" y="60.4">60</tspan>
				<tspan x="98.4" y="70.4">70</tspan>
				<tspan x="98.4" y="80.4">80</tspan>
				<tspan x="98.4" y="90.4">90</tspan>
			</text>
		</g>
	</symbol>
</svg>
