<?xml version="1.0" encoding="UTF-8"?>

<svg>
	<pattern id="grid_1k_p1" x="0" y="0" width="10" height="10"
		patternUnits="userSpaceOnUse">
		<line x1="0" y1="10" x2="10" y2="10" stroke="silver" stroke-width="1" />
		<line x1="0" y1="0" x2="0" y2="10" stroke="silver" stroke-width="1" />
	</pattern>
	<pattern id="grid_1k_p10" x="0" y="0" width="100" height="100"
		patternUnits="userSpaceOnUse">
		<line x1="0" y1="100" x2="100" y2="100" stroke="gray" stroke-width="2" />
		<line x1="0" y1="0" x2="0" y2="100" stroke="gray" stroke-width="2" />
	</pattern>
	<symbol id="grid_1k">
		<rect fill="url(#grid_1k_p1)" x="0" y="0" width="1000" height="1000" />
		<rect fill="url(#grid_1k_p10)" x="0" y="0" width="1000" height="1000" />
		<g stroke="none" fill="black">
			<text text-anchor="middle" font-size="14">
				<tspan x="100" y="14">100</tspan>
				<tspan x="200" y="14">200</tspan>
				<tspan x="300" y="14">300</tspan>
				<tspan x="400" y="14">400</tspan>
				<tspan x="500" y="14">500</tspan>
				<tspan x="600" y="14">600</tspan>
				<tspan x="700" y="14">700</tspan>
				<tspan x="800" y="14">800</tspan>
				<tspan x="900" y="14">900</tspan>
			</text>
			<text text-anchor="middle" font-size="14">
				<tspan x="100" y="994">100</tspan>
				<tspan x="200" y="994">200</tspan>
				<tspan x="300" y="994">300</tspan>
				<tspan x="400" y="994">400</tspan>
				<tspan x="500" y="994">500</tspan>
				<tspan x="600" y="994">600</tspan>
				<tspan x="700" y="994">700</tspan>
				<tspan x="800" y="994">800</tspan>
				<tspan x="900" y="994">900</tspan>
			</text>
			<text font-size="14">
				<tspan x="4" y="104">100</tspan>
				<tspan x="4" y="204">200</tspan>
				<tspan x="4" y="304">300</tspan>
				<tspan x="4" y="404">400</tspan>
				<tspan x="4" y="504">500</tspan>
				<tspan x="4" y="604">600</tspan>
				<tspan x="4" y="704">700</tspan>
				<tspan x="4" y="804">800</tspan>
				<tspan x="4" y="904">900</tspan>
			</text>
			<text font-size="13">
				<tspan x="984" y="104">100</tspan>
				<tspan x="984" y="204">200</tspan>
				<tspan x="984" y="304">300</tspan>
				<tspan x="984" y="404">400</tspan>
				<tspan x="984" y="504">500</tspan>
				<tspan x="984" y="604">600</tspan>
				<tspan x="984" y="704">700</tspan>
				<tspan x="984" y="804">800</tspan>
				<tspan x="984" y="904">900</tspan>
			</text>
		</g>
	</symbol>
</svg>
