<?xml version="1.0" encoding="UTF-8"?>

<svg>
	<pattern id="tank_bo6g_p" x="0" y="0" width="1" height="1"
			patternUnits="userSpaceOnUse" patternTransform="scale(.1,.05)">
		<line x1="0" y1="0" x2="1" y2="0" stroke="black" stroke-width=".1" />
		<line x1="0" y1=".5" x2="1" y2=".5" stroke="black" stroke-width=".1" />
		<line x1="0" y1="1" x2="1" y2="1" stroke="black" stroke-width=".1" />
		<line x1="0" y1="0" x2="0" y2=".5" stroke="black" stroke-width=".1" />
		<line x1="1" y1="0" x2="1" y2=".5" stroke="black" stroke-width=".1" />
		<line x1=".5" y1=".5" x2=".5" y2="1" stroke="black" stroke-width=".1" />
	</pattern>
	<pattern id="tank_bo6g_p1" x="0" y="0" width="1" height="1"
			patternUnits="userSpaceOnUse" patternTransform="scale(.05,.05)">
		<line x1="0" y1="0" x2="1" y2="0" stroke="black" stroke-width=".1" />
		<line x1="0" y1=".5" x2="1" y2=".5" stroke="black" stroke-width=".1" />
		<line x1="0" y1="1" x2="1" y2="1" stroke="black" stroke-width=".1" />
		<line x1="0" y1="0" x2="0" y2=".5" stroke="black" stroke-width=".1" />
		<line x1="1" y1="0" x2="1" y2=".5" stroke="black" stroke-width=".1" />
		<line x1=".5" y1=".5" x2=".5" y2="1" stroke="black" stroke-width=".1" />
	</pattern>
	<symbol id="tank_bo6g" viewBox="0 0 1 1" preserveAspectRatio="none">
		<path fill="silver" stroke="black" stroke-width=".01"
					d="M.005,.995 L.005,.9 L.9,.9 L.9,.005 L.995,.005 L.995,.995 z"/>
		<path fill="url(#tank_bo6g_p)" stroke="black" stroke-width=".01"
					d="M.005,.995 L.005,.9 L.9,.9 L.9,.005 L.995,.005 L.995,.995 z"/>
		<path fill="silver" stroke="none"
					d="M.25,1 L.25,0 L.5,0 A.7,.7 0 0,1 .5,.5 A.7,.7 0 0,0 .5,1 z"/>
		<path fill="url(#tank_bo6g_p)" stroke="none"
					d="M0,1 L0,0 L.5,0 A.7,.7 0 0,1 .5,.5 A.7,.7 0 0,0 .5,1 z"/>
		<rect x="0" y="0" width=".25" height="1" stroke="none" fill="gray"/>
		<rect x="0" y="0" width=".25" height="1" stroke="none" fill="url(#tank_bo6g_p1)" />
		<path fill="none" stroke="black" stroke-width=".01"
					d="M.5,0 A.7,.7 0 0,1 .5,.5 A.7,.7 0 0,0 .5,1"/>
	</symbol>
</svg>
