<?xml version="1.0" encoding="UTF-8"?>

<svg>
	<pattern id="tank_bxo4r_p" x="0" y="0" width="1" height="1"
			patternUnits="userSpaceOnUse" patternTransform="scale(.1,.05)">
		<line x1="0" y1="0" x2="1" y2="0" stroke="black" stroke-width=".1" />
		<line x1="0" y1=".5" x2="1" y2=".5" stroke="black" stroke-width=".1" />
		<line x1="0" y1="1" x2="1" y2="1" stroke="black" stroke-width=".1" />
		<line x1="0" y1="0" x2="0" y2=".5" stroke="black" stroke-width=".1" />
		<line x1="1" y1="0" x2="1" y2=".5" stroke="black" stroke-width=".1" />
		<line x1=".5" y1=".5" x2=".5" y2="1" stroke="black" stroke-width=".1" />
	</pattern>
	<pattern id="tank_bxo4r_h" x="0" y="0" width="1" height="1" patternUnits="userSpaceOnUse" patternTransform="scale(.05,.05)">
		<line x1="0" y1="1" x2="1" y2="0" stroke="black" stroke-width=".1"/>
		<line x1="1" y1="1" x2="0" y2="0" stroke="black" stroke-width=".1"/>
	</pattern>
	<symbol id="tank_bxo4r" viewBox="0 0 1 1" preserveAspectRatio="none">
		<rect x=".9" y=".005" width=".095" height=".9" fill="red" stroke="black" stroke-width=".01"/>
		<rect x=".9" y=".005" width=".095" height=".9" fill="url(#tank_bxo4r_p)" stroke="black" stroke-width=".01"/>
		<rect x="0" y=".9" width=".5" height=".1" stroke="none" fill="gray" />
		<rect x=".5" y=".9" width=".495" height=".095" stroke="black" stroke-width=".01" fill="silver" />
		<rect x=".5" y=".9" width=".495" height=".095" stroke="black" stroke-width=".01" fill="url(#tank_bxo4r_h)" />
		<path fill="maroon" stroke="none"
					d="M0,.9 L0,0 L.5,0 A.7,.7 0 0,1 .5,.45 A.7,.7 0 0,0 .5,.9 z"/>
		<path fill="url(#tank_bxo4r_p)" stroke="none"
					d="M0,.9 L0,0 L.5,0 A.7,.7 0 0,1 .5,.45 A.7,.7 0 0,0 .5,.9 z"/>
		<path fill="none" stroke="black" stroke-width=".01"
					d="M.5,0 A.7,.7 0 0,1 .5,.45 A.7,.7 0 0,0 .5,.9"/>
	</symbol>
</svg>
