<?xml version="1.0" encoding="UTF-8"?>

<svg>
	<pattern id="tank_bho_p" x="0" y="0" width="1" height="1"
					 patternUnits="userSpaceOnUse" patternTransform="scale(.1,.05)">
		<line x1="0" y1="0" x2="1" y2="0" stroke="black" stroke-width=".1" />
		<line x1="0" y1=".5" x2="1" y2=".5" stroke="black" stroke-width=".1" />
		<line x1="0" y1="1" x2="1" y2="1" stroke="black" stroke-width=".1" />
		<line x1="0" y1="0" x2="0" y2=".5" stroke="black" stroke-width=".1" />
		<line x1="1" y1="0" x2="1" y2=".5" stroke="black" stroke-width=".1" />
		<line x1=".5" y1=".5" x2=".5" y2="1" stroke="black" stroke-width=".1" />
	</pattern>
	<pattern id="tank_bho_h" x="0" y="0" width="1" height="1" patternUnits="userSpaceOnUse" patternTransform="scale(.05,.05)">
		<line x1="0" y1="1" x2="1" y2="0" stroke="black" stroke-width=".1"/>
	</pattern>
	<linearGradient id="tank_bho_lg">
		<stop offset="0" stop-color="black"/>
		<stop offset="1" stop-color="silver"/>
	</linearGradient>
	<symbol id="tank_bho" viewBox="0 0 1 1" preserveAspectRatio="none">
		<rect x=".9" y=".005" width=".095" height=".9" fill="silver" stroke="black" stroke-width=".01"/>
		<rect x=".9" y=".005" width=".095" height=".9" fill="url(#tank_bho_p)" stroke="black" stroke-width=".01"/>
		<rect x="0" y="0" width=".5" height="1" stroke="none" fill="url(#tank_bho_lg)"/>
		<rect x="0" y="0" width=".5" height=".9" stroke="none" fill="url(#tank_bho_p)" />
		<rect x=".5" y=".9" width=".495" height=".095" stroke="black" stroke-width=".01" fill="silver" />
		<rect x=".5" y=".9" width=".495" height=".095" stroke="black" stroke-width=".01" fill="url(#tank_bho_h)" />
		<line x1=".5" y1="0" x2=".5" y2="1" stroke="black" stroke-width=".01"/>
	</symbol>
</svg>
