<?xml version="1.0" encoding="UTF-8"?>

<svg xmlns:xlink="http://www.w3.org/1999/xlink">
	<linearGradient id="tower_a3dt_lg">
		<stop offset="0" stop-color="black"/>
		<stop offset=".5" stop-color="white"/>
		<stop offset="1" stop-color="black"/>
	</linearGradient>
	<pattern id="tower_a3dt_tp" x="0" y="0" width="1" height="1"
			patternUnits="userSpaceOnUse"  patternTransform="scale(.1,.07)">
		<line x1="0" y1="1" x2="1" y2="1" stroke="gray" stroke-width=".3" />
	</pattern>
	<symbol id="tower_a3dt_t" viewBox="0 0 1 1" preserveAspectRatio="none">
		<rect x="0" y="0" width="1" height="1" fill="url(#tower_a3dt_tp)" stroke="none"/>
		<rect x="0" y="0" width=".15" height="1" stroke="none" fill="url(#tower_a3dt_lg)"/>
		<rect x=".85" y="0" width=".15" height="1" stroke="none" fill="url(#tower_a3dt_lg)"/>
	</symbol>
	<symbol id="tower_a3dt" viewBox="0 0 1 1" preserveAspectRatio="none">
		<line x1=".22" y1=".034" x2=".83" y2=".305" stroke-width=".01" stroke="gray" />
		<line x1=".78" y1=".034" x2=".17" y2=".305" stroke-width=".01" stroke="gray" />
		<line x1=".19" y1=".3" x2=".88" y2=".605" stroke-width=".01" stroke="gray" />
		<line x1=".81" y1=".3" x2=".12" y2=".605" stroke-width=".01" stroke="gray" />
		<line x1=".12" y1=".59" x2=".95" y2=".95" stroke-width=".01" stroke="gray" />
		<line x1=".88" y1=".59" x2=".05" y2=".95" stroke-width=".01" stroke="gray" />
		<rect x="0" y="0" width=".02" height=".57" stroke="none" fill="url(#tower_a3dt_lg)"
					transform="translate(.22,.05) rotate(-90,0,0)"/>
		<rect x="0" y="0" width=".02" height=".67" stroke="none" fill="url(#tower_a3dt_lg)"
					transform="translate(.17,.31) rotate(-90,0,0)"/>
		<rect x="0" y="0" width=".02" height=".77" stroke="none" fill="url(#tower_a3dt_lg)"
					transform="translate(.12,.61) rotate(-90,0,0)"/>
		<rect x=".19" y="0" width=".08" height="1" stroke="none" fill="url(#tower_a3dt_lg)"
					transform="skewX(-10)"/>
		<rect x=".74" y="0" width=".08" height="1" stroke="none" fill="url(#tower_a3dt_lg)"
					transform="skewX(10)"/>
		<use xlink:href="#tower_a3dt_t" x=".27" y=".05" width=".25" height=".95" />
	</symbol>
</svg>
