<?xml version="1.0" encoding="UTF-8"?>

<svg>
	<pattern id="tower_b6c_wall" x="0" y="0" width="1" height="1"
			patternUnits="userSpaceOnUse" patternTransform="scale(.1,.05)">
		<line x1="0" y1="0" x2="1" y2="0" stroke="black" stroke-width=".1" />
		<line x1="0" y1=".5" x2="1" y2=".5" stroke="black" stroke-width=".1" />
		<line x1="0" y1="1" x2="1" y2="1" stroke="black" stroke-width=".1" />
		<line x1="0" y1="0" x2="0" y2=".5" stroke="black" stroke-width=".1" />
		<line x1="1" y1="0" x2="1" y2=".5" stroke="black" stroke-width=".1" />
		<line x1=".5" y1=".5" x2=".5" y2="1" stroke="black" stroke-width=".1" />
	</pattern>
	<pattern id="tower_b6c_wall1" x="0" y="0" width="1" height="1"
			patternUnits="userSpaceOnUse" patternTransform="scale(.05,.05)">
		<line x1="0" y1="0" x2="1" y2="0" stroke="black" stroke-width=".1" />
		<line x1="0" y1=".5" x2="1" y2=".5" stroke="black" stroke-width=".1" />
		<line x1="0" y1="1" x2="1" y2="1" stroke="black" stroke-width=".1" />
		<line x1="0" y1="0" x2="0" y2=".5" stroke="black" stroke-width=".1" />
		<line x1="1" y1="0" x2="1" y2=".5" stroke="black" stroke-width=".1" />
		<line x1=".5" y1=".5" x2=".5" y2="1" stroke="black" stroke-width=".1" />
	</pattern>
	<linearGradient id="tower_b6c_lg">
		<stop offset="0" stop-color="black"/>
		<stop offset=".5" stop-color="silver"/>
		<stop offset="1" stop-color="black"/>
	</linearGradient>
	<symbol id="tower_b6c" viewBox="0 0 1 1" preserveAspectRatio="none">
		<polygon points=".25,1 .3,0 .7,0 .75,1" stroke="none" fill="red"/>
		<polygon points=".25,1 .3,0 .7,0 .75,1" stroke="none" fill="url(#tower_b6c_wall)"/>
		<polygon points="0,1 .1,0 .3,0 .25,1" stroke="none" fill="maroon"/>
		<polygon points="0,1 .1,0 .3,0 .25,1" stroke="none" fill="url(#tower_b6c_wall1)"/>
		<polygon points="1,1 .9,0 .7,0 .75,1" stroke="none" fill="maroon"/>
		<polygon points="1,1 .9,0 .7,0 .75,1" stroke="none" fill="url(#tower_b6c_wall1)"/>
	</symbol>
</svg>
